<svg width="2311" height="727" viewBox="0 0 2311 727" fill="none" xmlns="http://www.w3.org/2000/svg">
<rect x="443.91" width="526.244" height="526.244" rx="200" transform="rotate(57.5163 443.91 0)" fill="#0084FF"/>
<path d="M991.545 546.273C973.727 546.273 957.848 543.182 943.909 537C929.97 530.697 918.939 521.424 910.818 509.182C902.818 496.818 898.818 481.424 898.818 463C898.818 447.485 901.667 434.455 907.364 423.909C913.061 413.364 920.818 404.879 930.636 398.455C940.455 392.03 951.606 387.182 964.091 383.909C976.697 380.636 989.909 378.333 1003.73 377C1019.97 375.303 1033.06 373.727 1043 372.273C1052.94 370.697 1060.15 368.394 1064.64 365.364C1069.12 362.333 1071.36 357.848 1071.36 351.909V350.818C1071.36 339.303 1067.73 330.394 1060.45 324.091C1053.3 317.788 1043.12 314.636 1029.91 314.636C1015.97 314.636 1004.88 317.727 996.636 323.909C988.394 329.97 982.939 337.606 980.273 346.818L908.636 341C912.273 324.03 919.424 309.364 930.091 297C940.758 284.515 954.515 274.939 971.364 268.273C988.333 261.485 1007.97 258.091 1030.27 258.091C1045.79 258.091 1060.64 259.909 1074.82 263.545C1089.12 267.182 1101.79 272.818 1112.82 280.455C1123.97 288.091 1132.76 297.909 1139.18 309.909C1145.61 321.788 1148.82 336.03 1148.82 352.636V541H1075.36V502.273H1073.18C1068.7 511 1062.7 518.697 1055.18 525.364C1047.67 531.909 1038.64 537.061 1028.09 540.818C1017.55 544.455 1005.36 546.273 991.545 546.273ZM1013.73 492.818C1025.12 492.818 1035.18 490.576 1043.91 486.091C1052.64 481.485 1059.48 475.303 1064.45 467.545C1069.42 459.788 1071.91 451 1071.91 441.182V411.545C1069.48 413.121 1066.15 414.576 1061.91 415.909C1057.79 417.121 1053.12 418.273 1047.91 419.364C1042.7 420.333 1037.48 421.242 1032.27 422.091C1027.06 422.818 1022.33 423.485 1018.09 424.091C1009 425.424 1001.06 427.545 994.273 430.455C987.485 433.364 982.212 437.303 978.455 442.273C974.697 447.121 972.818 453.182 972.818 460.455C972.818 471 976.636 479.061 984.273 484.636C992.03 490.091 1001.85 492.818 1013.73 492.818ZM1459.27 261.727L1361.64 541H1274.36L1176.73 261.727H1258.55L1316.55 461.545H1319.45L1377.27 261.727H1459.27ZM1498.91 541V261.727H1576.36V541H1498.91ZM1537.82 225.727C1526.3 225.727 1516.42 221.909 1508.18 214.273C1500.06 206.515 1496 197.242 1496 186.455C1496 175.788 1500.06 166.636 1508.18 159C1516.42 151.242 1526.3 147.364 1537.82 147.364C1549.33 147.364 1559.15 151.242 1567.27 159C1575.52 166.636 1579.64 175.788 1579.64 186.455C1579.64 197.242 1575.52 206.515 1567.27 214.273C1559.15 221.909 1549.33 225.727 1537.82 225.727ZM1764.59 546.455C1736.35 546.455 1711.92 540.455 1691.32 528.455C1670.83 516.333 1655.02 499.485 1643.86 477.909C1632.71 456.212 1627.14 431.061 1627.14 402.455C1627.14 373.606 1632.71 348.394 1643.86 326.818C1655.02 305.121 1670.83 288.273 1691.32 276.273C1711.92 264.152 1736.35 258.091 1764.59 258.091C1792.83 258.091 1817.2 264.152 1837.68 276.273C1858.29 288.273 1874.17 305.121 1885.32 326.818C1896.47 348.394 1902.05 373.606 1902.05 402.455C1902.05 431.061 1896.47 456.212 1885.32 477.909C1874.17 499.485 1858.29 516.333 1837.68 528.455C1817.2 540.455 1792.83 546.455 1764.59 546.455ZM1764.95 486.455C1777.8 486.455 1788.53 482.818 1797.14 475.545C1805.74 468.152 1812.23 458.091 1816.59 445.364C1821.08 432.636 1823.32 418.152 1823.32 401.909C1823.32 385.667 1821.08 371.182 1816.59 358.455C1812.23 345.727 1805.74 335.667 1797.14 328.273C1788.53 320.879 1777.8 317.182 1764.95 317.182C1751.98 317.182 1741.08 320.879 1732.23 328.273C1723.5 335.667 1716.89 345.727 1712.41 358.455C1708.05 371.182 1705.86 385.667 1705.86 401.909C1705.86 418.152 1708.05 432.636 1712.41 445.364C1716.89 458.091 1723.5 468.152 1732.23 475.545C1741.08 482.818 1751.98 486.455 1764.95 486.455ZM2029.86 379.545V541H1952.41V261.727H2026.23V311H2029.5C2035.68 294.758 2046.05 281.909 2060.59 272.455C2075.14 262.879 2092.77 258.091 2113.5 258.091C2132.89 258.091 2149.8 262.333 2164.23 270.818C2178.65 279.303 2189.86 291.424 2197.86 307.182C2205.86 322.818 2209.86 341.485 2209.86 363.182V541H2132.41V377C2132.53 359.909 2128.17 346.576 2119.32 337C2110.47 327.303 2098.29 322.455 2082.77 322.455C2072.35 322.455 2063.14 324.697 2055.14 329.182C2047.26 333.667 2041.08 340.212 2036.59 348.818C2032.23 357.303 2029.98 367.545 2029.86 379.545Z" fill="black"/>
</svg>
